<svg xmlns="http://www.w3.org/2000/svg" width="177.85" height="77.566" viewBox="0 0 177.85 77.566">
  <g id="Group_296" data-name="Group 296" transform="translate(1642 -939)">
    <g id="Group_295" data-name="Group 295" transform="translate(-1642 939)">
      <g id="Layer_1" data-name="Layer 1" transform="translate(82.85 7.406)">
        <text id="Blackbox" transform="translate(0 24)" fill="#fff" font-size="24" font-family="MullerNarrow-ExtraBold, Muller Narrow" font-weight="800"><tspan x="0" y="0">Blackbox</tspan></text>
        <text id="Electronics" transform="translate(0 46.187)" fill="#fff" font-size="24" font-family="MullerNarrow-Light, Muller Narrow" font-weight="300"><tspan x="0" y="0">Electronics</tspan></text>
      </g>
      <g id="Layer_2" data-name="Layer 2" transform="translate(0 19.149)">
        <path id="Path_4494" data-name="Path 4494" d="M281.636-405.114,315.375-385.9v39.172l-33.739-18.047" transform="translate(-281.636 405.114)" fill="#fff"/>
      </g>
      <g id="Layer_7" data-name="Layer 7" transform="translate(35.968 19.179)">
        <path id="Path_4495" data-name="Path 4495" d="M576.531-165.805a.687.687,0,0,0-.71.659.724.724,0,0,0,.669.752.726.726,0,0,0,.732-.69A.7.7,0,0,0,576.531-165.805Z" transform="translate(-559.572 208.252)" fill="#fff"/>
        <path id="Path_4496" data-name="Path 4496" d="M576.517-241.9a.689.689,0,0,0-.7.671.714.714,0,0,0,.683.734.716.716,0,0,0,.719-.7A.7.7,0,0,0,576.517-241.9Z" transform="translate(-559.571 270.843)" fill="#fff"/>
        <path id="Path_4497" data-name="Path 4497" d="M552.409-304.768a.739.739,0,0,0,.724-.706.719.719,0,0,0-.718-.7.7.7,0,0,0-.7.676A.728.728,0,0,0,552.409-304.768Z" transform="translate(-539.746 323.708)" fill="#fff"/>
        <path id="Path_4498" data-name="Path 4498" d="M552.414-214.1a.7.7,0,0,0-.7.684.74.74,0,0,0,.7.733.752.752,0,0,0,.72-.714A.727.727,0,0,0,552.414-214.1Z" transform="translate(-539.749 247.972)" fill="#fff"/>
        <path id="Path_4499" data-name="Path 4499" d="M504.761-272.72a.73.73,0,0,0,.719-.707.706.706,0,0,0-.711-.7.683.683,0,0,0-.693.676A.721.721,0,0,0,504.761-272.72Z" transform="translate(-500.562 297.351)" fill="#fff"/>
        <path id="Path_4500" data-name="Path 4500" d="M504.3-230.078a.7.7,0,0,0-.689.687.726.726,0,0,0,.689.736.738.738,0,0,0,.716-.714A.722.722,0,0,0,504.3-230.078Z" transform="translate(-500.179 261.117)" fill="#fff"/>
        <path id="Path_4501" data-name="Path 4501" d="M518.018-404.947l-3.292,1.875a2.136,2.136,0,0,1,.024.316q0,5.34,0,10.68,0,5.378,0,10.757a.579.579,0,0,0,.35.627,2.075,2.075,0,0,1,1.017,2.362,2.14,2.14,0,0,1-1.981,1.609,2.1,2.1,0,0,1-2.119-1.52,2.026,2.026,0,0,1,.912-2.4.752.752,0,0,0,.417-.787q-.013-10.427-.006-20.854l-2.838,1.616c0,1.254,0,2.509,0,3.763v.54c0,1.49,0,2.981-.005,4.471a.444.444,0,0,0,.28.471,2.1,2.1,0,0,1,1.091,2.367,2.16,2.16,0,0,1-2.033,1.647,2.14,2.14,0,0,1-2.094-1.565,2.063,2.063,0,0,1,.994-2.4.6.6,0,0,0,.349-.632q-.011-3.925,0-7.85l-2.884,1.642a.986.986,0,0,1,.018.142c.02.449.006.9.006,1.35q0,2.16,0,4.32c0,1.787-.01,3.574.007,5.361a1.387,1.387,0,0,1-.456,1.087c-1.205,1.176-2.385,2.378-3.582,3.563a.766.766,0,0,0-.259.6c.012,1.388.009,2.777,0,4.165a.388.388,0,0,0,.243.413,2.086,2.086,0,0,1,1.089,2.528,2.11,2.11,0,0,1-2.249,1.493,2.119,2.119,0,0,1-1.913-2.033,2.04,2.04,0,0,1,1.167-1.976.428.428,0,0,0,.26-.443c-.008-1.53,0-3.06-.009-4.59a1.1,1.1,0,0,1,.351-.854c1.226-1.21,2.436-2.437,3.662-3.646a.81.81,0,0,0,.258-.64q-.011-5.019,0-10.037l-2.862,1.63q.02,4.506.009,9.012a.709.709,0,0,1-.725.771.707.707,0,0,1-.682-.773c0-1.644,0-3.287,0-4.931q0-1.641,0-3.281l-2.852,1.624c0,.671,0,1.342,0,2.013,0,.758.008,1.516,0,2.274a.439.439,0,0,0,.27.474,2.1,2.1,0,0,1,1.042,2.55,2.132,2.132,0,0,1-2.435,1.427,2.142,2.142,0,0,1-1.718-2.163,2.01,2.01,0,0,1,1.1-1.78.547.547,0,0,0,.316-.571c-.01-1.135-.009-2.27-.007-3.405l-2.847,1.622q0,8.69,0,17.38a4.07,4.07,0,0,1-.011.424.708.708,0,0,1-.693.647.717.717,0,0,1-.706-.638,3.315,3.315,0,0,1-.007-.385q0-5.188,0-10.376,0-3.122,0-6.244l-2.768,1.577q0,.644,0,1.289v4.186a2.169,2.169,0,0,1,1.326,2.65,2.1,2.1,0,0,1-2.088,1.511,2.12,2.12,0,0,1-2-1.575,2.068,2.068,0,0,1,.985-2.375.635.635,0,0,0,.371-.658q-.012-2.109-.009-4.218l-3.5,1.994v39.172l3.5-1.872c0-.6,0-1.2,0-1.8q0-.964,0-1.929c0-1.71,0-3.42.005-5.13a.477.477,0,0,0-.3-.5,2.143,2.143,0,0,1-1.064-2.422,2.168,2.168,0,0,1,2.046-1.583,2.129,2.129,0,0,1,2.094,1.613,2.133,2.133,0,0,1-1.067,2.386.493.493,0,0,0-.3.532q.007,4.039,0,8.079l2.77-1.482q0-2.6,0-5.2c0-2.237,0-4.474.005-6.71a.768.768,0,0,0-.249-.6c-1.226-1.211-2.435-2.437-3.662-3.646a1.136,1.136,0,0,1-.37-.886c.015-1.041,0-2.083.01-3.124a.452.452,0,0,0-.282-.474,2.139,2.139,0,0,1-1.083-2.412,2.169,2.169,0,0,1,2.068-1.6,2.133,2.133,0,0,1,2.068,1.6,2.137,2.137,0,0,1-1.075,2.416.447.447,0,0,0-.288.466c.015.912-.006,1.826.016,2.738a.85.85,0,0,0,.219.527q1.823,1.858,3.678,3.685a1.152,1.152,0,0,1,.368.886q-.009,5.792-.005,11.583l2.848-1.524q0-1.409,0-2.817,0-6.072,0-12.145a.565.565,0,0,0-.33-.6,2.127,2.127,0,0,1-1.015-2.4,2.169,2.169,0,0,1,2.047-1.581,2.132,2.132,0,0,1,2.083,1.627,2.117,2.117,0,0,1-1.033,2.364.534.534,0,0,0-.327.561q.006,7.115.005,14.229l2.851-1.525c0-1.388,0-2.777,0-4.165a.477.477,0,0,0-.289-.506,2.13,2.13,0,0,1-1.044-2.522,2.167,2.167,0,0,1,2.264-1.485,2.122,2.122,0,0,1,1.9,2.046,2.056,2.056,0,0,1-1.136,1.957.484.484,0,0,0-.3.5q.005,1.71,0,3.42l2.851-1.525v-.351q0-4.686.005-9.372a.5.5,0,0,0-.313-.528,2.146,2.146,0,0,1-1.053-2.361,2.172,2.172,0,0,1,2.048-1.63,2.119,2.119,0,0,1,2.087,1.568,2.114,2.114,0,0,1-1.007,2.407.567.567,0,0,0-.338.6q.005,4.453,0,8.905l7.119-3.808q0-.544,0-1.087c0-.68,0-1.36,0-2.039a.738.738,0,0,1,.741-.8.7.7,0,0,1,.67.781c0,.8,0,1.595,0,2.392l3.271-1.75Zm-7.535,26.263q0,6.924,0,13.848c0,.575-.225.865-.681.888a.649.649,0,0,1-.723-.591,3.721,3.721,0,0,1-.018-.5q0-3.375,0-6.751,0-3.394,0-6.789a2.008,2.008,0,0,1,.049-.535.713.713,0,0,1,.77-.45.655.655,0,0,1,.591.571A1.442,1.442,0,0,1,510.484-378.684Z" transform="translate(-484.279 404.947)" fill="#fff"/>
        <path id="Path_4502" data-name="Path 4502" d="M504.78-153.891a.706.706,0,0,0-.709.706.7.7,0,0,0,.707.71.727.727,0,0,0,.7-.727A.724.724,0,0,0,504.78-153.891Z" transform="translate(-500.558 198.452)" fill="#fff"/>
        <path id="Path_4503" data-name="Path 4503" d="M648.72-260.526a.717.717,0,0,0,.695-.728.715.715,0,0,0-.726-.693.715.715,0,0,0-.679.7A.729.729,0,0,0,648.72-260.526Z" transform="translate(-618.948 287.33)" fill="#fff"/>
        <path id="Path_4504" data-name="Path 4504" d="M600.54-210.042a.734.734,0,0,0-.7.686.752.752,0,0,0,.7.74.753.753,0,0,0,.725-.712A.735.735,0,0,0,600.54-210.042Z" transform="translate(-579.325 244.637)" fill="#fff"/>
        <path id="Path_4505" data-name="Path 4505" d="M624.761-320.739a.723.723,0,0,0,.712-.71.723.723,0,0,0-.723-.7.7.7,0,0,0-.683.691A.7.7,0,0,0,624.761-320.739Z" transform="translate(-599.256 336.845)" fill="#fff"/>
      </g>
      <g id="top" transform="translate(0.912 0)">
        <path id="Path_4506" data-name="Path 4506" d="M286.773-495.978,320.411-513l33.841,17.427-33.359,18.6" transform="translate(-286.773 513)" fill="#fff"/>
      </g>
    </g>
  </g>
</svg>
